<svg width="320" height="320" viewBox="0 0 320 320" fill="none" xmlns="http://www.w3.org/2000/svg">
<g clip-path="url(#clip0_982_2203)">
<path d="M36.7567 170.978L160.641 47.0938L218.367 60.7761L233.795 99.8215L230.026 129.545L253.51 149.713L314.78 304.777C317.128 311.027 311.022 317.133 304.772 314.785L262.043 297.882L249.224 279.889L226.304 283.744L192.786 270.484C186.407 267.961 179.493 272.662 179.493 279.521V279.731C179.493 285.099 175.142 289.45 169.775 289.45C164.407 289.45 160.056 285.098 160.056 279.731V264.142C160.056 262.194 159.471 260.29 158.375 258.679C157.28 257.067 155.725 255.822 153.913 255.106C147.534 252.582 140.62 257.283 140.62 264.142V296.116C140.62 301.483 136.268 305.834 130.901 305.834C125.534 305.834 121.183 301.483 121.183 296.116V248.764C121.183 246.816 120.597 244.912 119.502 243.301C118.406 241.689 116.852 240.444 115.04 239.727L61.0472 218.369L36.7567 170.978Z" fill="#FCD258"/>
<path d="M160.641 47.0938L218.367 60.7767L227.202 83.1375L233.795 99.8221L230.026 129.546L253.51 149.713L314.78 304.777C317.128 311.027 311.022 317.133 304.772 314.785L295.605 311.158C296.595 309.319 296.864 307.058 296.008 304.777L216.095 102.538C213.363 95.6215 206.209 91.4566 198.863 92.6142C168.441 97.4086 139.314 111.552 116.043 134.823C91.2734 159.592 86.2938 194.548 82.418 226.823L61.0472 218.369L36.7567 170.978L160.641 47.0938Z" fill="#F9B044"/>
<path d="M229.153 49.4768C232.701 60.3308 225.012 71.5929 213.611 72.2555C177.955 74.3267 143.054 89.0397 116.043 116.051C88.9226 143.171 74.326 178.073 72.2536 213.568C71.5872 224.984 60.3127 232.683 49.4492 229.113L16.6631 218.339C8.87085 215.778 3.94817 208.127 4.78415 199.967C9.73123 151.676 30.7053 104.716 67.707 67.7145C77.6193 57.8022 88.2468 49.0394 99.4231 41.4273C129.991 20.6078 164.665 8.39279 200.051 4.78292C208.221 3.94943 215.88 8.88024 218.432 16.6863L229.153 49.4768Z" fill="#D98A54"/>
<path d="M209.139 56.0739L198.418 23.2835C195.866 15.4774 188.208 10.5466 180.037 11.3801C167.787 12.6288 155.663 14.9076 143.795 18.1925C161.871 11.2525 180.789 6.74321 200.052 4.78292C208.222 3.94943 215.88 8.88024 218.433 16.6863L229.153 49.4768C232.701 60.3308 225.012 71.5928 213.611 72.2555C210.972 72.4088 208.336 72.6322 205.708 72.9238C209.55 68.513 211.15 62.2281 209.139 56.0739Z" fill="#C27742"/>
<path d="M135.293 213.977C121.616 213.977 110.529 202.89 110.529 189.213C110.529 175.537 121.616 164.45 135.293 164.45C148.969 164.45 160.056 175.537 160.056 189.213C160.056 202.89 148.969 213.977 135.293 213.977Z" fill="#E94442"/>
<path d="M141.284 189.213C141.284 178.859 134.929 169.989 125.907 166.291C128.885 165.071 132.074 164.446 135.293 164.45C148.969 164.45 160.056 175.537 160.056 189.213C160.056 202.89 148.969 213.977 135.293 213.977C132.074 213.981 128.885 213.355 125.907 212.136C134.929 208.438 141.284 199.567 141.284 189.213Z" fill="#CF3636"/>
<path d="M239.526 212.019C234.166 212.019 229.821 207.674 229.821 202.314C229.821 196.954 234.166 192.609 239.526 192.609C244.886 192.609 249.231 196.954 249.231 202.314C249.231 207.674 244.886 212.019 239.526 212.019Z" fill="#A0D94C"/>
<path d="M181.281 246.297C175.921 246.297 171.576 241.952 171.576 236.592C171.576 231.232 175.921 226.887 181.281 226.887C186.641 226.887 190.986 231.232 190.986 236.592C190.986 241.952 186.641 246.297 181.281 246.297Z" fill="#A0D94C"/>
<path d="M224.003 272.598C224.003 257.456 236.279 245.181 251.42 245.181C266.562 245.181 278.837 257.456 278.837 272.598C278.837 283.973 271.909 293.73 262.043 297.881L226.377 283.772C224.807 280.256 223.998 276.448 224.003 272.598Z" fill="#E94442"/>
<path d="M260.065 272.598C260.065 260.753 252.554 250.663 242.034 246.83C245.042 245.736 248.219 245.178 251.42 245.181C266.562 245.181 278.837 257.456 278.837 272.598C278.837 283.973 271.909 293.73 262.043 297.881L250.573 293.344C256.387 288.316 260.065 280.887 260.065 272.598Z" fill="#CF3636"/>
<path d="M228.085 99.2783C230.031 99.2783 231.934 99.4542 233.782 99.7908L253.509 149.714C247.747 157.488 238.505 162.528 228.085 162.528C210.62 162.528 196.46 148.369 196.46 130.903C196.46 113.437 210.619 99.2783 228.085 99.2783Z" fill="#E94442"/>
<path d="M215.788 101.759C219.679 100.117 223.861 99.2733 228.085 99.2788C230.03 99.2788 231.934 99.4547 233.782 99.7913L253.508 149.714C249.875 154.618 244.856 158.433 239.031 160.582L215.788 101.759Z" fill="#CF3636"/>
<path d="M0.116302 199.489C8.26904 119.912 57.9025 52.9603 126.784 20.3719C127.908 19.8517 129.191 19.7964 130.355 20.218C131.519 20.6397 132.469 21.5041 132.998 22.623C133.528 23.742 133.594 25.0248 133.182 26.1921C132.77 27.3595 131.913 28.3168 130.799 28.8556C64.3132 60.3127 17.2127 124.707 9.45358 200.446C8.83597 206.474 12.4039 211.999 18.1294 213.881L50.9155 224.655C58.8611 227.264 67.0821 221.637 67.5695 213.295C72.1537 134.779 134.821 72.1303 213.34 67.57C221.674 67.0869 227.285 58.8628 224.693 50.9354L213.973 18.1455C212.097 12.41 206.566 8.8408 200.529 9.45152C183.031 11.2345 165.82 15.1647 149.283 21.1534C146.847 22.0395 144.155 20.778 143.272 18.3407C143.062 17.7614 142.969 17.1463 142.996 16.5307C143.024 15.9151 143.173 15.3109 143.434 14.7528C143.695 14.1946 144.064 13.6933 144.518 13.2776C144.973 12.8619 145.506 12.5399 146.085 12.3299C163.346 6.07816 181.312 1.97542 199.576 0.114273C209.878 -0.941971 219.686 5.4199 222.894 15.2277L233.614 48.0182C236.378 56.4706 233.828 65.4062 227.53 71.193L281.392 207.505C281.618 208.078 281.73 208.69 281.72 209.306C281.709 209.923 281.578 210.531 281.333 211.096C281.088 211.662 280.733 212.173 280.29 212.602C279.848 213.03 279.325 213.367 278.751 213.594C276.361 214.539 273.622 213.384 272.662 210.953L251.87 158.334C228.378 178.627 191.769 161.942 191.769 130.902C191.769 111.23 207.376 95.3414 226.689 94.6062L219.315 75.9442C217.553 76.4991 215.729 76.8333 213.884 76.9391C140.12 81.2242 81.2469 140.079 76.9399 213.841C76.8348 215.667 76.5061 217.474 75.9613 219.22L116.767 235.362C122.301 237.551 125.878 242.811 125.878 248.763V296.115C125.878 298.886 128.132 301.139 130.903 301.139C133.674 301.139 135.928 298.885 135.928 296.115V264.142C135.928 253.976 146.19 247.003 155.641 250.741C161.175 252.931 164.751 258.191 164.751 264.142V279.73C164.751 282.502 167.006 284.756 169.776 284.756C172.548 284.756 174.801 282.501 174.801 279.73V279.52C174.801 269.371 185.045 262.376 194.514 266.119L219.48 275.995C217.514 257.506 231.924 240.487 251.422 240.487C281.139 240.487 294.814 277.63 272.396 296.928L306.454 310.402C308.911 311.301 311.3 308.917 310.399 306.457L280.19 230.004C279.733 228.846 279.754 227.554 280.249 226.412C280.744 225.27 281.673 224.372 282.831 223.915C283.988 223.457 285.28 223.479 286.422 223.974C287.564 224.469 288.462 225.398 288.92 226.555L319.145 303.052L319.173 303.126C322.951 313.177 313.119 322.934 303.123 319.177C303.097 319.168 303.072 319.158 303.047 319.148L191.061 274.847C187.765 273.539 184.187 275.96 184.187 279.52V279.73C184.187 287.677 177.722 294.142 169.776 294.142C161.829 294.142 155.365 287.677 155.365 279.73V264.142C155.368 263.134 155.067 262.148 154.5 261.314C153.933 260.48 153.127 259.837 152.188 259.469C148.905 258.169 145.314 260.57 145.314 264.142V296.116C145.314 304.062 138.849 310.527 130.903 310.527C122.957 310.527 116.492 304.062 116.492 296.116V248.764C116.495 247.756 116.194 246.77 115.627 245.936C115.06 245.102 114.254 244.459 113.315 244.091L71.2351 227.445C65.4877 233.739 56.524 236.379 47.9852 233.571L15.1991 222.797C5.40567 219.579 -0.938049 209.776 0.116302 199.489ZM201.154 130.903C201.154 155.606 231.817 167.158 248.137 148.887L230.428 104.069C214.71 102.7 201.154 115.102 201.154 130.903ZM274.145 272.598C274.145 260.068 263.951 249.874 251.422 249.874C235.251 249.874 224.94 265.883 229.981 280.15L261.891 292.774C265.589 290.859 268.688 287.964 270.85 284.405C273.011 280.846 274.151 276.761 274.145 272.598Z" fill="black"/>
<path d="M164.749 189.214C164.749 202.604 155.712 214.323 142.771 217.711C141.567 218.027 140.287 217.851 139.212 217.222C138.138 216.594 137.357 215.564 137.042 214.36C136.727 213.156 136.903 211.876 137.532 210.802C138.16 209.727 139.19 208.947 140.394 208.631C149.207 206.324 155.363 198.339 155.363 189.214C155.363 178.147 146.359 169.144 135.293 169.144C115.573 169.144 107.723 194.769 124.044 205.839C124.554 206.185 124.991 206.628 125.33 207.143C125.668 207.658 125.903 208.234 126.019 208.84C126.135 209.445 126.13 210.067 126.006 210.671C125.881 211.274 125.639 211.848 125.293 212.358C124.947 212.868 124.504 213.305 123.99 213.643C123.475 213.982 122.898 214.216 122.293 214.332C121.688 214.448 121.066 214.444 120.462 214.32C119.858 214.195 119.285 213.953 118.775 213.607C114.789 210.908 111.525 207.274 109.27 203.021C107.014 198.769 105.835 194.028 105.836 189.215C105.836 172.973 119.05 159.759 135.292 159.759C151.534 159.759 164.749 172.971 164.749 189.214ZM233.304 189.329C240.482 185.891 249.072 188.914 252.51 196.092C255.95 203.268 252.925 211.86 245.747 215.298C238.604 218.721 229.979 215.708 226.541 208.535C223.111 201.375 226.145 192.76 233.304 189.329ZM235.006 204.479C236.2 206.971 239.201 208.027 241.692 206.834C242.286 206.549 242.817 206.151 243.257 205.661C243.697 205.171 244.036 204.599 244.254 203.979C244.473 203.358 244.567 202.7 244.531 202.042C244.496 201.385 244.331 200.741 244.046 200.148C242.852 197.656 239.853 196.598 237.36 197.793C234.868 198.988 233.812 201.987 235.006 204.479ZM194.266 230.369C197.696 237.529 194.663 246.145 187.503 249.576C180.353 253.001 171.732 249.982 168.297 242.813C164.867 235.654 167.9 227.037 175.059 223.607C182.22 220.176 190.834 223.212 194.266 230.369ZM179.116 232.071C176.623 233.266 175.567 236.265 176.761 238.757C177.955 241.249 180.955 242.307 183.447 241.112C185.939 239.918 186.995 236.918 185.802 234.426C184.608 231.934 181.608 230.876 179.116 232.071ZM129.482 145.316C126.951 145.316 124.789 143.263 124.789 140.623C124.789 138.081 126.849 135.929 129.485 135.929C132.033 135.929 134.181 137.992 134.181 140.623C134.181 143.317 131.959 145.316 129.482 145.316ZM176.462 156.503C176.462 159.159 174.286 161.202 171.769 161.202C169.149 161.202 167.076 159.072 167.076 156.503C167.076 153.844 169.248 151.813 171.757 151.813C174.342 151.813 176.462 153.909 176.462 156.503ZM93.0135 208.239C93.0135 205.583 95.1904 203.551 97.6902 203.551C100.3 203.551 102.4 205.648 102.4 208.239C102.4 210.815 100.303 212.932 97.7065 212.932C95.0978 212.932 93.0135 210.793 93.0135 208.239ZM181.281 197.62C183.919 197.62 185.974 199.768 185.974 202.313C185.974 204.963 183.817 207.006 181.281 207.006C178.663 207.006 176.588 204.864 176.588 202.313C176.588 199.728 178.691 197.62 181.281 197.62ZM228.698 229.997C228.698 232.563 226.596 234.69 224.005 234.69C221.452 234.69 219.312 232.618 219.312 229.997C219.312 227.367 221.447 225.302 224.005 225.302C226.598 225.301 228.698 227.414 228.698 229.997ZM188.517 170.611C200.283 170.933 207.891 180.372 208.209 180.774C209.812 182.797 209.472 185.727 207.456 187.341C205.435 188.958 202.489 188.623 200.867 186.62C200.815 186.555 195.583 180.193 188.261 179.993C185.669 179.923 183.627 177.764 183.698 175.174C183.768 172.583 185.943 170.539 188.517 170.611ZM171.031 111.172C171.552 111.502 172.002 111.931 172.357 112.435C172.712 112.939 172.965 113.507 173.1 114.109C173.235 114.71 173.25 115.332 173.145 115.939C173.039 116.547 172.816 117.127 172.486 117.648C172.442 117.717 168.18 124.743 170.406 131.715C170.779 132.899 170.667 134.183 170.096 135.285C169.525 136.387 168.54 137.218 167.357 137.596C166.175 137.973 164.891 137.867 163.786 137.3C162.682 136.733 161.847 135.752 161.465 134.57C157.884 123.358 164.282 113.06 164.555 112.628C165.221 111.576 166.277 110.832 167.492 110.559C168.706 110.286 169.979 110.507 171.031 111.172ZM31.3502 202.686C30.1646 203.065 28.877 202.957 27.7709 202.386C26.6648 201.816 25.8307 200.829 25.452 199.643C21.8716 188.432 28.2691 178.134 28.5426 177.701C29.9242 175.519 32.8019 174.875 34.9908 176.244C37.1796 177.614 37.8441 180.506 36.4863 182.701C36.4431 182.772 32.1656 189.811 34.3932 196.789C34.7716 197.974 34.6636 199.262 34.093 200.368C33.5223 201.474 32.5358 202.308 31.3502 202.686ZM188.39 23.9038C190.931 23.9038 193.082 25.9719 193.082 28.5968C193.082 31.1586 191.001 33.2899 188.389 33.2899C185.761 33.2899 183.696 31.143 183.696 28.5968C183.695 25.9468 185.869 23.9038 188.39 23.9038Z" fill="black"/>
<path d="M204.533 48.1317C201.941 48.1317 199.84 46.0305 199.84 43.4386C199.84 40.8467 201.941 38.7456 204.533 38.7456C207.125 38.7456 209.226 40.8467 209.226 43.4386C209.226 46.0305 207.125 48.1317 204.533 48.1317Z" fill="black"/>
<path d="M176.024 51.786C173.432 51.786 171.331 49.6848 171.331 47.0929C171.331 44.501 173.432 42.3999 176.024 42.3999C178.616 42.3999 180.717 44.501 180.717 47.0929C180.717 49.6848 178.616 51.786 176.024 51.786Z" fill="black"/>
</g>
<defs>
<clipPath id="clip0_982_2203">
<rect width="320" height="320" fill="white" transform="matrix(-1 0 0 1 320 0)"/>
</clipPath>
</defs>
</svg>
