<svg width="32" height="32" viewBox="0 0 32 32" fill="none" xmlns="http://www.w3.org/2000/svg">
<g clip-path="url(#clip0_779_1779)">
<path d="M29.0989 11.8136C28.5154 11.7288 27.9585 11.5135 27.4698 11.1837C26.981 10.8539 26.5729 10.418 26.2759 9.90865C25.979 9.39926 25.8007 8.82944 25.7545 8.24162C25.7082 7.65379 25.7952 7.06311 26.0089 6.51356C26.1448 6.15429 26.1648 5.76151 26.0661 5.39029C25.9675 5.01907 25.7552 4.68802 25.4589 4.44356C24.151 3.34522 22.6622 2.4824 21.0589 1.89356C20.6938 1.75794 20.2953 1.741 19.92 1.84514C19.5447 1.94928 19.2119 2.1692 18.9689 2.47356C18.6032 2.94121 18.1358 3.31945 17.6021 3.57957C17.0685 3.8397 16.4826 3.97489 15.8889 3.97489C15.2952 3.97489 14.7094 3.8397 14.1757 3.57957C13.6421 3.31945 13.1746 2.94121 12.8089 2.47356C12.5659 2.1692 12.2331 1.94928 11.8578 1.84514C11.4826 1.741 11.084 1.75794 10.7189 1.89356C9.23859 2.4372 7.85451 3.21363 6.61892 4.19356C6.30747 4.44012 6.08313 4.77993 5.97876 5.16321C5.87439 5.54649 5.89548 5.95312 6.03892 6.32356C6.26968 6.88765 6.36502 7.49797 6.31729 8.10556C6.26957 8.71315 6.08012 9.3011 5.76412 9.82225C5.44813 10.3434 5.0144 10.7832 4.49772 11.1065C3.98103 11.4297 3.39579 11.6274 2.78892 11.6836C2.39493 11.7257 2.02487 11.8932 1.73323 12.1614C1.44159 12.4297 1.24378 12.7845 1.16892 13.1736C0.98272 14.0953 0.888922 15.0332 0.888922 15.9736C0.887554 16.7608 0.951103 17.5468 1.07892 18.3236C1.14254 18.7251 1.33667 19.0946 1.6313 19.3747C1.92594 19.6549 2.30466 19.8302 2.70892 19.8736C3.32912 19.9318 3.92635 20.1377 4.45063 20.4741C4.97491 20.8105 5.41098 21.2675 5.72235 21.8071C6.03372 22.3466 6.21133 22.9528 6.24031 23.5751C6.26929 24.1973 6.1488 24.8174 5.88892 25.3836C5.71885 25.7518 5.67666 26.1663 5.76906 26.5613C5.86146 26.9562 6.08314 27.309 6.39892 27.5636C7.69904 28.6419 9.1735 29.4908 10.7589 30.0736C10.9617 30.1438 11.1744 30.1809 11.3889 30.1836C11.6831 30.1829 11.9728 30.1118 12.2338 29.976C12.4948 29.8403 12.7195 29.644 12.8889 29.4036C13.2453 28.8843 13.7231 28.4598 14.2808 28.1671C14.8384 27.8743 15.4591 27.7221 16.0889 27.7236C16.6992 27.7243 17.3008 27.8676 17.8459 28.1419C18.3911 28.4162 18.8646 28.814 19.2289 29.3036C19.4712 29.6293 19.8145 29.8657 20.2051 29.976C20.5958 30.0864 21.012 30.0644 21.3889 29.9136C22.8386 29.3301 24.1882 28.5237 25.3889 27.5236C25.6905 27.2742 25.9053 26.9356 26.0023 26.5564C26.0994 26.1773 26.0737 25.7772 25.9289 25.4136C25.6937 24.8567 25.5912 24.2529 25.6294 23.6496C25.6675 23.0464 25.8454 22.4603 26.149 21.9375C26.4525 21.4148 26.8734 20.9698 27.3784 20.6377C27.8834 20.3055 28.4587 20.0953 29.0589 20.0236C29.4481 19.9697 29.8101 19.7934 30.0923 19.5201C30.3746 19.2469 30.5625 18.8908 30.6289 18.5036C30.7895 17.6695 30.8765 16.8229 30.8889 15.9736C30.8891 15.0777 30.8054 14.1838 30.6389 13.3036C30.5714 12.9249 30.3863 12.5771 30.1098 12.3096C29.8334 12.0421 29.4796 11.8685 29.0989 11.8136ZM20.8889 15.9736C20.8889 16.9625 20.5957 17.9292 20.0463 18.7514C19.4969 19.5737 18.716 20.2145 17.8023 20.593C16.8887 20.9714 15.8834 21.0704 14.9135 20.8775C13.9436 20.6846 13.0527 20.2084 12.3534 19.5091C11.6541 18.8098 11.1779 17.9189 10.985 16.949C10.7921 15.9791 10.8911 14.9738 11.2695 14.0601C11.648 13.1465 12.2888 12.3656 13.1111 11.8162C13.9333 11.2668 14.9 10.9736 15.8889 10.9736C17.215 10.9736 18.4868 11.5003 19.4245 12.438C20.3621 13.3757 20.8889 14.6475 20.8889 15.9736Z" fill="#F5C2B1" stroke="black" stroke-width="2"/>
</g>
<defs>
<clipPath id="clip0_779_1779">
<rect width="32" height="32" fill="white"/>
</clipPath>
</defs>
</svg>
