<svg width="32" height="32" viewBox="0 0 32 32" fill="none" xmlns="http://www.w3.org/2000/svg">
<g id="mdi:about">
<path id="Vector" d="M16 1.33301C14.074 1.33301 12.1668 1.71237 10.3874 2.44944C8.60791 3.18651 6.99107 4.26685 5.62914 5.62878C2.87861 8.37931 1.33337 12.1098 1.33337 15.9997C1.33337 19.8895 2.87861 23.62 5.62914 26.3706C6.99107 27.7325 8.60791 28.8128 10.3874 29.5499C12.1668 30.287 14.074 30.6663 16 30.6663C19.8899 30.6663 23.6204 29.1211 26.3709 26.3706C29.1215 23.62 30.6667 19.8895 30.6667 15.9997C30.6667 14.0736 30.2873 12.1664 29.5503 10.387C28.8132 8.60754 27.7329 6.9907 26.3709 5.62878C25.009 4.26685 23.3922 3.18651 21.6127 2.44944C19.8333 1.71237 17.9261 1.33301 16 1.33301Z" fill="black"/>
<path id="Vector_2" d="M16 3C14.2928 3 12.6023 3.33625 11.0251 3.98957C9.44788 4.64288 8.01477 5.60045 6.80761 6.80761C4.36964 9.24558 3 12.5522 3 16C3 19.4478 4.36964 22.7544 6.80761 25.1924C8.01477 26.3995 9.44788 27.3571 11.0251 28.0104C12.6023 28.6637 14.2928 29 16 29C19.4478 29 22.7544 27.6304 25.1924 25.1924C27.6304 22.7544 29 19.4478 29 16C29 14.2928 28.6637 12.6023 28.0104 11.0251C27.3571 9.44788 26.3995 8.01477 25.1924 6.80761C23.9852 5.60045 22.5521 4.64288 20.9749 3.98957C19.3977 3.33625 17.7072 3 16 3Z" fill="#FBE6DF"/>
<path id="Vector_3" d="M17.4673 11.6003H14.5339V8.66699H17.4673M17.4673 23.3337H14.5339V14.5337H17.4673" fill="black"/>
</g>
</svg>
