<svg width="24" height="24" viewBox="0 0 24 24" fill="none" xmlns="http://www.w3.org/2000/svg">
<g clip-path="url(#clip0_752_1541)">
<path fill-rule="evenodd" clip-rule="evenodd" d="M7.94011 13.06C7.65921 12.7788 7.50143 12.3975 7.50143 12C7.50143 11.6025 7.65921 11.2213 7.94011 10.94L13.5961 5.28202C13.8775 5.00076 14.2591 4.8428 14.657 4.8429C15.0548 4.84299 15.4363 5.00113 15.7176 5.28252C15.9989 5.56392 16.1568 5.94552 16.1567 6.34338C16.1566 6.74123 15.9985 7.12276 15.7171 7.40402L11.1211 12L15.7171 16.596C15.9905 16.8788 16.1419 17.2576 16.1386 17.6509C16.1354 18.0442 15.9778 18.4205 15.6998 18.6988C15.4219 18.977 15.0457 19.1349 14.6524 19.1385C14.2591 19.1421 13.8801 18.9911 13.5971 18.718L7.93911 13.061L7.94011 13.06Z" fill="#593308"/>
</g>
<defs>
<clipPath id="clip0_752_1541">
<rect width="24" height="24" fill="white" transform="matrix(0 1 -1 0 24 0)"/>
</clipPath>
</defs>
</svg>
