<svg width="32" height="32" viewBox="0 0 32 32" fill="none" xmlns="http://www.w3.org/2000/svg">
<mask id="path-1-outside-1_127_5614" maskUnits="userSpaceOnUse" x="1" y="0.996735" width="31" height="31" fill="black">
<rect fill="white" x="1" y="0.996735" width="31" height="31"/>
<path d="M4 23.28V27.3333C4 27.7067 4.29333 28 4.66667 28H8.72C8.89333 28 9.06667 27.9333 9.18667 27.8L23.7467 13.2533L18.7467 8.25333L4.2 22.8C4.06667 22.9333 4 23.0933 4 23.28ZM27.6133 9.38666C27.7369 9.26331 27.835 9.11679 27.9019 8.95549C27.9688 8.79419 28.0033 8.62128 28.0033 8.44666C28.0033 8.27204 27.9688 8.09913 27.9019 7.93783C27.835 7.77653 27.7369 7.63001 27.6133 7.50666L24.4933 4.38666C24.37 4.26306 24.2235 4.16499 24.0622 4.09808C23.9009 4.03117 23.728 3.99673 23.5533 3.99673C23.3787 3.99673 23.2058 4.03117 23.0445 4.09808C22.8832 4.16499 22.7367 4.26306 22.6133 4.38666L20.1733 6.82666L25.1733 11.8267L27.6133 9.38666Z"/>
</mask>
<path d="M4 23.28V27.3333C4 27.7067 4.29333 28 4.66667 28H8.72C8.89333 28 9.06667 27.9333 9.18667 27.8L23.7467 13.2533L18.7467 8.25333L4.2 22.8C4.06667 22.9333 4 23.0933 4 23.28ZM27.6133 9.38666C27.7369 9.26331 27.835 9.11679 27.9019 8.95549C27.9688 8.79419 28.0033 8.62128 28.0033 8.44666C28.0033 8.27204 27.9688 8.09913 27.9019 7.93783C27.835 7.77653 27.7369 7.63001 27.6133 7.50666L24.4933 4.38666C24.37 4.26306 24.2235 4.16499 24.0622 4.09808C23.9009 4.03117 23.728 3.99673 23.5533 3.99673C23.3787 3.99673 23.2058 4.03117 23.0445 4.09808C22.8832 4.16499 22.7367 4.26306 22.6133 4.38666L20.1733 6.82666L25.1733 11.8267L27.6133 9.38666Z" fill="#F5C2B1"/>
<path d="M9.18667 27.8L7.06632 25.6777L7.01002 25.7339L6.95678 25.7931L9.18667 27.8ZM23.7467 13.2533L25.867 15.3756L27.9903 13.2543L25.868 11.132L23.7467 13.2533ZM18.7467 8.25333L20.868 6.13201L18.7467 4.01069L16.6253 6.13201L18.7467 8.25333ZM4.2 22.8L6.32132 24.9213L4.2 22.8ZM27.6133 9.38666L25.4942 7.26317L25.492 7.26534L27.6133 9.38666ZM27.6133 7.50666L25.492 9.62798L25.4942 9.63015L27.6133 7.50666ZM24.4933 4.38666L22.3698 6.50581L22.372 6.50798L24.4933 4.38666ZM23.5533 3.99673V0.996735V3.99673ZM22.6133 4.38666L24.7347 6.50798L24.7368 6.5058L22.6133 4.38666ZM20.1733 6.82666L18.052 4.70534L15.9307 6.82666L18.052 8.94798L20.1733 6.82666ZM25.1733 11.8267L23.052 13.948L25.1733 16.0693L27.2947 13.948L25.1733 11.8267ZM1 23.28V27.3333H7V23.28H1ZM1 27.3333C1 29.3635 2.63648 31 4.66667 31V25C5.95019 25 7 26.0498 7 27.3333H1ZM4.66667 31H8.72V25H4.66667V31ZM8.72 31C9.63495 31 10.6587 30.649 11.4165 29.8069L6.95678 25.7931C7.47467 25.2177 8.15171 25 8.72 25V31ZM11.307 29.9223L25.867 15.3756L21.6263 11.131L7.06632 25.6777L11.307 29.9223ZM25.868 11.132L20.868 6.13201L16.6253 10.3746L21.6253 15.3746L25.868 11.132ZM16.6253 6.13201L2.07868 20.6787L6.32132 24.9213L20.868 10.3746L16.6253 6.13201ZM2.07868 20.6787C1.38917 21.3682 1 22.2886 1 23.28H7C7 23.552 6.94964 23.8609 6.81923 24.1738C6.68907 24.4862 6.50723 24.7354 6.32132 24.9213L2.07868 20.6787ZM29.7325 11.5102C30.1353 11.1081 30.4549 10.6306 30.673 10.105L25.1309 7.80602C25.2151 7.60294 25.3386 7.41847 25.4942 7.26317L29.7325 11.5102ZM30.673 10.105C30.891 9.57929 31.0033 9.01577 31.0033 8.44666H25.0033C25.0033 8.2268 25.0466 8.0091 25.1309 7.80602L30.673 10.105ZM31.0033 8.44666C31.0033 7.87755 30.891 7.31403 30.673 6.78836L25.1309 9.0873C25.0466 8.88422 25.0033 8.66652 25.0033 8.44666H31.0033ZM30.673 6.78836C30.4549 6.26268 30.1353 5.78517 29.7325 5.38317L25.4942 9.63015C25.3386 9.47485 25.2151 9.29038 25.1309 9.0873L30.673 6.78836ZM29.7347 5.38534L26.6147 2.26534L22.372 6.50798L25.492 9.62798L29.7347 5.38534ZM26.6168 2.26752C26.2148 1.86468 25.7373 1.54509 25.2116 1.32703L22.9127 6.86913C22.7096 6.78489 22.5251 6.66143 22.3698 6.5058L26.6168 2.26752ZM25.2116 1.32703C24.686 1.10898 24.1224 0.996735 23.5533 0.996735V6.99673C23.3335 6.99673 23.1158 6.95337 22.9127 6.86913L25.2116 1.32703ZM23.5533 0.996735C22.9842 0.996735 22.4207 1.10897 21.895 1.32703L24.194 6.86913C23.9909 6.95338 23.7732 6.99673 23.5533 6.99673V0.996735ZM21.895 1.32703C21.3694 1.54509 20.8918 1.86468 20.4898 2.26752L24.7368 6.5058C24.5815 6.66143 24.3971 6.78489 24.194 6.86913L21.895 1.32703ZM20.492 2.26534L18.052 4.70534L22.2947 8.94798L24.7347 6.50798L20.492 2.26534ZM18.052 8.94798L23.052 13.948L27.2947 9.70534L22.2947 4.70534L18.052 8.94798ZM27.2947 13.948L29.7347 11.508L25.492 7.26534L23.052 9.70534L27.2947 13.948Z" fill="black" mask="url(#path-1-outside-1_127_5614)"/>
</svg>
