<svg width="32" height="32" viewBox="0 0 32 32" fill="none" xmlns="http://www.w3.org/2000/svg">
<g id="ic:baseline-help">
<path id="Vector" d="M3.26663 16.0003C3.26663 8.9717 8.97133 3.26699 16 3.26699C23.0286 3.26699 28.7333 8.9717 28.7333 16.0003C28.7333 23.029 23.0286 28.7337 16 28.7337C8.97133 28.7337 3.26663 23.029 3.26663 16.0003Z" fill="#FBE6DF" stroke="black" stroke-width="1.2"/>
<path id="Vector_2" d="M14.9751 18.8286C14.9827 17.7466 15.421 16.7626 16.1217 16.0408L16.1222 16.0403L17.5129 14.6047C18.0403 14.0809 18.35 13.3578 18.35 12.5714C18.35 10.9919 17.0777 9.68571 15.5 9.68571C14.1274 9.68571 12.986 10.6743 12.7124 11.9714H11.6441C11.9283 10.0558 13.5528 8.6 15.5 8.6C17.646 8.6 19.4 10.3681 19.4 12.5714C19.4 13.4147 19.0604 14.1792 18.5262 14.7219L18.5261 14.7219L18.5216 14.7267L17.5108 15.7763C17.5105 15.7766 17.5102 15.7769 17.5099 15.7772C17.0952 16.2044 16.7072 16.6436 16.4353 17.2285C16.224 17.683 16.0949 18.1975 16.0467 18.8286H14.9751ZM16.025 22.3143V23.4H14.975V22.3143H16.025Z" fill="black" stroke="black" stroke-width="1.2"/>
</g>
</svg>
