<svg width="32" height="32" viewBox="0 0 32 32" fill="none" xmlns="http://www.w3.org/2000/svg">
<g id="Frame" clip-path="url(#clip0_1356_706)">
<path id="Vector" d="M13 5.71412C13 4.90584 13.3161 4.13067 13.8787 3.55913C14.4413 2.98759 15.2044 2.6665 16 2.6665C16.7956 2.6665 17.5587 2.98759 18.1213 3.55913C18.6839 4.13067 19 4.90584 19 5.71412C20.7226 6.54159 22.1911 7.82967 23.2481 9.44029C24.305 11.0509 24.9107 12.9234 25 14.857V19.4284C25.1129 20.3758 25.4432 21.283 25.9642 22.077C26.4853 22.871 27.1826 23.5296 28 23.9998H4C4.81741 23.5296 5.51471 22.871 6.03578 22.077C6.55685 21.283 6.88712 20.3758 7 19.4284V14.857C7.08934 12.9234 7.69495 11.0509 8.75192 9.44029C9.8089 7.82967 11.2774 6.54159 13 5.71412Z" stroke="black" stroke-width="2" stroke-linecap="round" stroke-linejoin="round"/>
<path id="Vector_2" d="M12 24V25.3333C12 26.3942 12.4214 27.4116 13.1716 28.1618C13.9217 28.9119 14.9391 29.3333 16 29.3333C17.0609 29.3333 18.0783 28.9119 18.8284 28.1618C19.5786 27.4116 20 26.3942 20 25.3333V24" stroke="black" stroke-width="2" stroke-linecap="round" stroke-linejoin="round"/>
<path id="Vector_3" d="M13.5 7.42857C13.5 6.78447 13.7634 6.16676 14.2322 5.71131C14.7011 5.25587 15.337 5 16 5C16.663 5 17.2989 5.25587 17.7678 5.71131C18.2366 6.16676 18.5 6.78447 18.5 7.42857C19.9355 8.08796 21.1593 9.1144 22.0401 10.3979C22.9209 11.6813 23.4255 13.1734 23.5 14.7143V18.3571C23.5941 19.1121 23.8693 19.835 24.3035 20.4677C24.7377 21.1004 24.8188 21.6253 25.5 22H6.5C7.18117 21.6253 7.26226 21.1004 7.69648 20.4677C8.13071 19.835 8.40593 19.1121 8.5 18.3571V14.7143C8.57445 13.1734 9.07913 11.6813 9.95994 10.3979C10.8407 9.1144 12.0645 8.08796 13.5 7.42857Z" stroke="#FBE6DF" stroke-width="2" stroke-linecap="round" stroke-linejoin="round"/>
<path id="Vector_4" d="M12 22.6665V23.9998C12 25.0607 12.4214 26.0781 13.1716 26.8283C13.9217 27.5784 14.9391 27.9998 16 27.9998C17.0609 27.9998 18.0783 27.5784 18.8284 26.8283C19.5786 26.0781 20 25.0607 20 23.9998V22.6665" stroke="#FBE6DF" stroke-width="2" stroke-linecap="round" stroke-linejoin="round"/>
</g>
<defs>
<clipPath id="clip0_1356_706">
<rect width="32" height="32" fill="white"/>
</clipPath>
</defs>
</svg>
