<svg width="32" height="32" viewBox="0 0 32 32" fill="none" xmlns="http://www.w3.org/2000/svg">
<g id="mdi:password-reset" clip-path="url(#clip0_1356_778)">
<path id="Vector" d="M16.84 2.6665C24.2133 2.6665 30.1867 8.6665 30.1867 15.9998C30.1867 23.3332 24.2133 29.3332 16.84 29.3332C12.16 29.3332 8.06667 26.9065 5.68 23.2398L7.78667 21.5732C9.66667 24.6265 13.0133 26.6665 16.8533 26.6665C19.6823 26.6665 22.3954 25.5427 24.3958 23.5423C26.3962 21.5419 27.52 18.8288 27.52 15.9998C27.52 13.1709 26.3962 10.4578 24.3958 8.45736C22.3954 6.45698 19.6823 5.33317 16.8533 5.33317C11.4133 5.33317 6.93333 9.41317 6.28 14.6665H9.96L4.97333 19.6398L0 14.6665H3.58667C4.25333 7.93317 9.93333 2.6665 16.84 2.6665ZM20.7867 13.6532C21.4533 13.6665 22 14.1998 22 14.8798V21.0265C22 21.6932 21.4533 22.2532 20.7733 22.2532H13.4C12.72 22.2532 12.1733 21.6932 12.1733 21.0265V14.8798C12.1733 14.1998 12.72 13.6665 13.3867 13.6532V12.3065C13.3867 10.2665 15.0533 8.61317 17.08 8.61317C19.12 8.61317 20.7867 10.2665 20.7867 12.3065V13.6532ZM17.08 10.4798C16.08 10.4798 15.2533 11.2932 15.2533 12.3065V13.6532H18.92V12.3065C18.92 11.2932 18.0933 10.4798 17.08 10.4798Z" fill="#FBE6DF" stroke="black"/>
</g>
<defs>
<clipPath id="clip0_1356_778">
<rect width="32" height="32" fill="white"/>
</clipPath>
</defs>
</svg>
