<svg width="32" height="32" viewBox="0 0 32 32" fill="none" xmlns="http://www.w3.org/2000/svg">
<g clip-path="url(#clip0_779_1687)">
<path d="M3.67564 17.0978L16.0641 4.70935L21.8367 6.07759L23.3795 9.98212L23.0025 12.9545L25.3509 14.9713L31.4779 30.4777C31.7128 31.1027 31.1022 31.7133 30.4772 31.4784L26.2043 29.7881L24.9224 27.9888L22.6304 28.3743L19.2786 27.0484C18.6407 26.7961 17.9493 27.2662 17.9493 27.9521V27.9731C17.9493 28.5099 17.5141 28.945 16.9774 28.945C16.4407 28.945 16.0056 28.5098 16.0056 27.9731V26.4142C16.0056 26.2194 15.947 26.029 15.8375 25.8678C15.7279 25.7067 15.5725 25.5822 15.3912 25.5105C14.7534 25.2582 14.0619 25.7283 14.0619 26.4142V29.6116C14.0619 30.1483 13.6268 30.5834 13.0901 30.5834C12.5533 30.5834 12.1183 30.1482 12.1183 29.6116V24.8764C12.1183 24.6815 12.0597 24.4912 11.9501 24.33C11.8406 24.1689 11.6851 24.0444 11.5039 23.9727L6.10469 21.8368L3.67564 17.0978Z" fill="#FCD258"/>
<path d="M16.0641 4.70935L21.8367 6.07765L22.7202 8.31372L23.3795 9.98218L23.0025 12.9546L25.3509 14.9713L31.4779 30.4777C31.7128 31.1027 31.1022 31.7133 30.4772 31.4784L29.5604 31.1158C29.6595 30.9319 29.6864 30.7058 29.6007 30.4777L21.6095 10.2538C21.3362 9.56213 20.6209 9.14564 19.8863 9.2614C16.8441 9.74084 13.9313 11.1551 11.6042 13.4823C9.12731 15.9592 8.62935 19.4548 8.24177 22.6823L6.10469 21.8368L3.67564 17.0978L16.0641 4.70935Z" fill="#F9B044"/>
<path d="M22.9152 4.9477C23.2701 6.0331 22.5011 7.15931 21.3611 7.22557C17.7955 7.43269 14.3054 8.90399 11.6042 11.6051C8.89223 14.3171 7.43257 17.8073 7.22532 21.3568C7.15868 22.4984 6.03123 23.2683 4.94489 22.9113L1.66628 21.8339C0.887048 21.5779 0.39478 20.8127 0.478379 19.9967C0.973086 15.1676 3.07049 10.4716 6.77067 6.77147C7.7619 5.78024 8.82465 4.90396 9.94227 4.14275C12.9991 2.0608 16.4665 0.839301 20.0051 0.478313C20.8221 0.394965 21.5879 0.888045 21.8432 1.66865L22.9152 4.9477Z" fill="#D98A54"/>
<path d="M20.9138 5.60742L19.8418 2.32837C19.5866 1.54776 18.8207 1.05468 18.0037 1.13803C16.7786 1.2629 15.5663 1.49079 14.3795 1.81927C16.1871 1.12527 18.0788 0.674342 20.0051 0.478313C20.8222 0.394965 21.588 0.888045 21.8432 1.66865L22.9152 4.9477C23.2701 6.0331 22.5011 7.15931 21.3611 7.22557C21.0972 7.2409 20.8336 7.26324 20.5708 7.2924C20.9549 6.85132 21.115 6.22283 20.9138 5.60742Z" fill="#C27742"/>
<path d="M13.5292 21.3977C12.1616 21.3977 11.0529 20.289 11.0529 18.9213C11.0529 17.5537 12.1616 16.445 13.5292 16.445C14.8969 16.445 16.0056 17.5537 16.0056 18.9213C16.0056 20.289 14.8969 21.3977 13.5292 21.3977Z" fill="#E94442"/>
<path d="M14.1284 18.9213C14.1284 17.8859 13.4929 16.9989 12.5906 16.6291C12.8885 16.5071 13.2074 16.4446 13.5292 16.445C14.8969 16.445 16.0056 17.5537 16.0056 18.9213C16.0056 20.289 14.8969 21.3977 13.5292 21.3977C13.2074 21.3981 12.8885 21.3356 12.5906 21.2136C13.4929 20.8438 14.1284 19.9568 14.1284 18.9213Z" fill="#CF3636"/>
<path d="M23.9526 21.2019C23.4166 21.2019 22.9821 20.7674 22.9821 20.2314C22.9821 19.6954 23.4166 19.2609 23.9526 19.2609C24.4886 19.2609 24.9231 19.6954 24.9231 20.2314C24.9231 20.7674 24.4886 21.2019 23.9526 21.2019Z" fill="#A0D94C"/>
<path d="M18.1281 24.6297C17.5921 24.6297 17.1576 24.1952 17.1576 23.6592C17.1576 23.1232 17.5921 22.6887 18.1281 22.6887C18.6641 22.6887 19.0986 23.1232 19.0986 23.6592C19.0986 24.1952 18.6641 24.6297 18.1281 24.6297Z" fill="#A0D94C"/>
<path d="M22.4003 27.2598C22.4003 25.7456 23.6278 24.5181 25.142 24.5181C26.6562 24.5181 27.8837 25.7456 27.8837 27.2598C27.8837 28.3973 27.1909 29.373 26.2042 29.7881L22.6376 28.3772C22.4807 28.0256 22.3998 27.6448 22.4003 27.2598Z" fill="#E94442"/>
<path d="M26.0065 27.2598C26.0065 26.0753 25.2554 25.0663 24.2034 24.683C24.5042 24.5736 24.8219 24.5178 25.142 24.5181C26.6562 24.5181 27.8837 25.7456 27.8837 27.2598C27.8837 28.3973 27.1909 29.373 26.2042 29.7881L25.0572 29.3344C25.6387 28.8316 26.0065 28.0887 26.0065 27.2598Z" fill="#CF3636"/>
<path d="M22.8085 9.92781C23.003 9.92781 23.1934 9.94539 23.3782 9.97906L25.3509 14.9714C24.7747 15.7488 23.8505 16.2528 22.8085 16.2528C21.0619 16.2528 19.646 14.8369 19.646 13.0903C19.646 11.3437 21.0619 9.92781 22.8085 9.92781Z" fill="#E94442"/>
<path d="M21.5787 10.1759C21.9679 10.0117 22.3861 9.92732 22.8084 9.92787C23.003 9.92787 23.1933 9.94546 23.3782 9.97912L25.3508 14.9714C24.9874 15.4618 24.4855 15.8433 23.903 16.0582L21.5787 10.1759Z" fill="#CF3636"/>
<path d="M0.0115404 19.9489C0.826813 11.9912 5.79016 5.29604 12.6783 2.0372C12.7907 1.98519 12.919 1.97966 13.0354 2.02182C13.1518 2.06398 13.2468 2.15042 13.2997 2.26232C13.3527 2.37421 13.3593 2.50249 13.3181 2.61923C13.2769 2.73597 13.1913 2.8317 13.0798 2.88558C6.43123 6.03128 1.72118 12.4707 0.945267 20.0446C0.883507 20.6474 1.2403 21.1999 1.81285 21.3881L5.09146 22.4655C5.88602 22.7264 6.70811 22.1637 6.75686 21.3295C7.21527 13.4779 13.482 7.21305 21.3339 6.75701C22.1673 6.7087 22.7284 5.8863 22.4692 5.09355L21.3972 1.81457C21.2096 1.24102 20.6565 0.884095 20.0528 0.945167C18.303 1.12346 16.5819 1.51648 14.9282 2.11536C14.6846 2.20396 14.4154 2.07781 14.3271 1.83409C14.3061 1.77615 14.2968 1.71465 14.2995 1.65309C14.3023 1.59152 14.3172 1.53111 14.3433 1.47529C14.3694 1.41947 14.4063 1.36935 14.4518 1.32778C14.4972 1.28621 14.5505 1.254 14.6084 1.23301C16.3345 0.607831 18.1311 0.197557 19.9575 0.0114425C20.9877 -0.0941819 21.9685 0.542005 22.2893 1.52278L23.3614 4.80183C23.6377 5.64708 23.3827 6.54063 22.7529 7.11931L28.1391 20.7505C28.1617 20.8078 28.1729 20.869 28.1719 20.9307C28.1708 20.9923 28.1577 21.0531 28.1332 21.1096C28.1087 21.1662 28.0732 21.2173 28.029 21.2602C27.9847 21.303 27.9324 21.3368 27.875 21.3594C27.636 21.4539 27.3621 21.3384 27.2661 21.0953L25.1869 15.8334C22.8377 17.8627 19.1768 16.1943 19.1768 13.0902C19.1768 11.123 20.7375 9.53416 22.6688 9.46063L21.9314 7.59444C21.7552 7.64993 21.5728 7.68335 21.3883 7.69393C14.0119 8.12243 8.1246 14.0079 7.6939 21.3841C7.68339 21.5667 7.65052 21.7474 7.59604 21.922L11.6766 23.5362C12.2301 23.7552 12.5877 24.2811 12.5877 24.8763V29.6115C12.5877 29.8886 12.8131 30.114 13.0902 30.114C13.3673 30.114 13.5927 29.8885 13.5927 29.6115V26.4142C13.5927 25.3977 14.6189 24.7003 15.564 25.0741C16.1174 25.2931 16.4751 25.8191 16.4751 26.4142V27.9731C16.4751 28.2502 16.7005 28.4756 16.9775 28.4756C17.2547 28.4756 17.4801 28.2501 17.4801 27.9731V27.952C17.4801 26.9371 18.5044 26.2376 19.4513 26.6119L21.9479 27.5995C21.7513 25.7506 23.1923 24.0488 25.1421 24.0488C28.1138 24.0488 29.4813 27.7631 27.2395 29.6928L30.6453 31.0402C30.891 31.1302 31.1299 30.8917 31.0398 30.6457L28.0189 23.0004C27.9732 22.8846 27.9753 22.7554 28.0248 22.6413C28.0743 22.5271 28.1672 22.4372 28.283 22.3915C28.3987 22.3458 28.5279 22.3479 28.6421 22.3974C28.7563 22.4469 28.8461 22.5398 28.8919 22.6555L31.9144 30.3052L31.9172 30.3126C32.295 31.3178 31.3118 32.2934 30.3122 31.9177C30.3096 31.9168 30.3071 31.9158 30.3046 31.9148L19.106 27.4847C18.7765 27.354 18.4186 27.5961 18.4186 27.952V27.9731C18.4186 28.7677 17.7721 29.4142 16.9775 29.4142C16.1828 29.4142 15.5364 28.7677 15.5364 27.9731V26.4142C15.5367 26.3134 15.5066 26.2148 15.4499 26.1314C15.3932 26.048 15.3126 25.9837 15.2187 25.9469C14.8904 25.817 14.5313 26.057 14.5313 26.4142V29.6116C14.5313 30.4062 13.8848 31.0527 13.0902 31.0527C12.2956 31.0527 11.6491 30.4062 11.6491 29.6116V24.8764C11.6494 24.7756 11.6193 24.677 11.5626 24.5936C11.5059 24.5102 11.4253 24.4459 11.3314 24.4091L7.12342 22.7445C6.54868 23.3739 5.65231 23.6379 4.79843 23.3571L1.51982 22.2797C0.540476 21.9579 -0.0938963 20.9776 0.0115404 19.9489ZM20.1153 13.0903C20.1153 15.5606 23.1816 16.7158 24.8136 14.8887L23.0427 10.4069C21.4709 10.27 20.1153 11.5102 20.1153 13.0903ZM27.4144 27.2598C27.4144 26.0068 26.3951 24.9874 25.1421 24.9874C23.525 24.9874 22.4939 26.5883 22.9981 28.015L26.1891 29.2774C26.5588 29.086 26.8687 28.7964 27.0849 28.4405C27.301 28.0847 27.415 27.6762 27.4144 27.2598Z" fill="black"/>
<path d="M16.4749 18.9214C16.4749 20.2604 15.5711 21.4323 14.2771 21.7711C14.1566 21.8027 14.0286 21.7851 13.9212 21.7222C13.8138 21.6594 13.7357 21.5564 13.7042 21.436C13.6727 21.3156 13.6903 21.1876 13.7531 21.0802C13.816 20.9727 13.9189 20.8947 14.0393 20.8631C14.9207 20.6324 15.5363 19.8339 15.5363 18.9214C15.5363 17.8147 14.6359 16.9144 13.5292 16.9144C11.5572 16.9144 10.7723 19.4769 12.4044 20.5839C12.4554 20.6185 12.499 20.6628 12.5329 20.7143C12.5668 20.7658 12.5902 20.8234 12.6018 20.884C12.6134 20.9445 12.613 21.0067 12.6006 21.0671C12.5881 21.1274 12.5639 21.1848 12.5293 21.2358C12.4947 21.2868 12.4504 21.3305 12.3989 21.3643C12.3475 21.3982 12.2898 21.4216 12.2293 21.4332C12.1688 21.4448 12.1065 21.4444 12.0462 21.432C11.9858 21.4195 11.9285 21.3953 11.8775 21.3607C11.4789 21.0908 11.1525 20.7274 10.9269 20.3021C10.7014 19.8769 10.5835 19.4028 10.5836 18.9215C10.5836 17.2972 11.905 15.9759 13.5292 15.9759C15.1534 15.9759 16.4749 17.2971 16.4749 18.9214ZM23.3304 18.9329C24.0481 18.5891 24.9071 18.8914 25.251 19.6092C25.5949 20.3268 25.2925 21.186 24.5747 21.5298C23.8603 21.8721 22.9978 21.5708 22.6541 20.8535C22.3111 20.1375 22.6144 19.276 23.3304 18.9329ZM23.5005 20.4479C23.6199 20.6971 23.92 20.8027 24.1691 20.6834C24.2285 20.6549 24.2817 20.6151 24.3257 20.5661C24.3697 20.5171 24.4036 20.4599 24.4254 20.3979C24.4473 20.3358 24.4567 20.27 24.4531 20.2042C24.4495 20.1385 24.433 20.0741 24.4045 20.0148C24.2852 19.7656 23.9853 19.6598 23.736 19.7793C23.4868 19.8988 23.3812 20.1987 23.5005 20.4479ZM19.4266 23.0369C19.7695 23.7529 19.4662 24.6145 18.7503 24.9576C18.0353 25.3001 17.1732 24.9982 16.8296 24.2813C16.4867 23.5654 16.79 22.7037 17.5059 22.3607C18.222 22.0176 19.0834 22.3212 19.4266 23.0369ZM17.9115 23.2071C17.6623 23.3266 17.5567 23.6265 17.6761 23.8757C17.7955 24.1249 18.0954 24.2307 18.3447 24.1112C18.5939 23.9918 18.6995 23.6918 18.5801 23.4426C18.4607 23.1934 18.1608 23.0876 17.9115 23.2071ZM12.9482 14.5316C12.6951 14.5316 12.4789 14.3263 12.4789 14.0623C12.4789 13.8081 12.6849 13.5929 12.9485 13.5929C13.2033 13.5929 13.4181 13.7992 13.4181 14.0623C13.4181 14.3317 13.1959 14.5316 12.9482 14.5316ZM17.6462 15.6503C17.6462 15.9159 17.4286 16.1202 17.1769 16.1202C16.9149 16.1202 16.7076 15.9072 16.7076 15.6503C16.7076 15.3844 16.9248 15.1813 17.1757 15.1813C17.4342 15.1813 17.6462 15.3909 17.6462 15.6503ZM9.30132 20.8239C9.30132 20.5583 9.51902 20.3551 9.769 20.3551C10.03 20.3551 10.2399 20.5648 10.2399 20.8239C10.2399 21.0815 10.0302 21.2932 9.77063 21.2932C9.50976 21.2932 9.30132 21.0793 9.30132 20.8239ZM18.1281 19.762C18.3918 19.762 18.5973 19.9768 18.5973 20.2313C18.5973 20.4963 18.3817 20.7006 18.128 20.7006C17.8663 20.7006 17.6587 20.4864 17.6587 20.2313C17.6587 19.9728 17.8691 19.762 18.1281 19.762ZM22.8698 22.9997C22.8698 23.2563 22.6596 23.469 22.4005 23.469C22.1452 23.469 21.9312 23.2618 21.9312 22.9997C21.9312 22.7367 22.1446 22.5302 22.4004 22.5302C22.6597 22.5301 22.8698 22.7414 22.8698 22.9997ZM18.8517 17.0611C20.0283 17.0933 20.7891 18.0372 20.8209 18.0774C20.9812 18.2797 20.9472 18.5727 20.7456 18.7341C20.5435 18.8958 20.2488 18.8623 20.0866 18.662C20.0815 18.6555 19.5583 18.0193 18.826 17.9993C18.5669 17.9923 18.3627 17.7764 18.3698 17.5174C18.3768 17.2583 18.5943 17.0539 18.8517 17.0611ZM17.1031 11.1172C17.1551 11.1502 17.2002 11.1931 17.2357 11.2435C17.2712 11.2939 17.2964 11.3507 17.3099 11.4109C17.3234 11.471 17.325 11.5332 17.3144 11.5939C17.3039 11.6547 17.2815 11.7127 17.2486 11.7648C17.2442 11.7717 16.8179 12.4743 17.0406 13.1715C17.0779 13.2899 17.0667 13.4183 17.0096 13.5285C16.9524 13.6387 16.854 13.7218 16.7357 13.7596C16.6174 13.7973 16.489 13.7867 16.3786 13.73C16.2682 13.6733 16.1847 13.5752 16.1464 13.457C15.7884 12.3358 16.4282 11.306 16.4555 11.2628C16.5221 11.1576 16.6277 11.0832 16.7491 11.0559C16.8706 11.0286 16.9979 11.0507 17.1031 11.1172ZM3.135 20.2686C3.01643 20.3065 2.88768 20.2957 2.77707 20.2386C2.66646 20.1816 2.58304 20.0829 2.54518 19.9643C2.18713 18.8432 2.82689 17.8134 2.85423 17.7701C2.99239 17.5519 3.28017 17.4875 3.49905 17.6244C3.71794 17.7614 3.78439 18.0506 3.6486 18.2701C3.64429 18.2772 3.21653 18.9811 3.43929 19.6789C3.47714 19.7974 3.46634 19.9262 3.40927 20.0368C3.35221 20.1474 3.25355 20.2308 3.135 20.2686ZM18.8389 2.39038C19.0931 2.39038 19.3082 2.59719 19.3082 2.85968C19.3082 3.11586 19.1001 3.32899 18.8389 3.32899C18.5761 3.32899 18.3696 3.1143 18.3696 2.85968C18.3695 2.59468 18.5869 2.39038 18.8389 2.39038Z" fill="black"/>
<path d="M20.4533 4.81316C20.1941 4.81316 19.984 4.60305 19.984 4.34386C19.984 4.08467 20.1941 3.87456 20.4533 3.87456C20.7125 3.87456 20.9226 4.08467 20.9226 4.34386C20.9226 4.60305 20.7125 4.81316 20.4533 4.81316Z" fill="black"/>
<path d="M17.6024 5.1786C17.3432 5.1786 17.1331 4.96848 17.1331 4.70929C17.1331 4.4501 17.3432 4.23999 17.6024 4.23999C17.8616 4.23999 18.0717 4.4501 18.0717 4.70929C18.0717 4.96848 17.8616 5.1786 17.6024 5.1786Z" fill="black"/>
</g>
<defs>
<clipPath id="clip0_779_1687">
<rect width="32" height="32" fill="white" transform="matrix(-1 0 0 1 32 0)"/>
</clipPath>
</defs>
</svg>
