<svg width="32" height="32" viewBox="0 0 32 32" fill="none" xmlns="http://www.w3.org/2000/svg">
<g id="mdi:security-account">
<path id="Vector" d="M16.2437 0.784721L16 0.676417L15.7563 0.784721L3.75632 6.11805L3.4 6.27642V6.66634V14.6663C3.4 22.318 8.68557 29.4979 15.8577 31.2492L16 31.284L16.1423 31.2492C23.3144 29.4979 28.6 22.318 28.6 14.6663V6.66634V6.27642L28.2437 6.11805L16.2437 0.784721ZM22.3438 22.329L22.3438 22.3289L22.3377 22.3382C20.8327 24.6419 18.6009 26.3739 16 27.2608C13.3991 26.3739 11.1673 24.6419 9.66231 22.3382L9.6624 22.3381L9.65616 22.329C9.24632 21.7262 8.89712 21.1298 8.60536 20.5065C8.6692 19.7891 9.30578 18.996 10.6231 18.3381C11.976 17.6625 13.8807 17.2263 16 17.2263C18.1215 17.2263 20.0263 17.6532 21.3784 18.3239C22.6936 18.9762 23.3322 19.7696 23.3949 20.506C23.1031 21.1295 22.7538 21.7261 22.3438 22.329ZM16 7.26634C16.9017 7.26634 17.7665 7.62456 18.4042 8.26218C19.0418 8.8998 19.4 9.76461 19.4 10.6663C19.4 11.5681 19.0418 12.4329 18.4042 13.0705C17.7665 13.7081 16.9017 14.0663 16 14.0663C15.0983 14.0663 14.2335 13.7081 13.5958 13.0705C12.9582 12.4329 12.6 11.5681 12.6 10.6663C12.6 9.76461 12.9582 8.8998 13.5958 8.26218C14.2335 7.62455 15.0983 7.26634 16 7.26634Z" fill="#FBE6DF" stroke="black" stroke-width="1.2"/>
</g>
</svg>
