<svg width="32" height="32" viewBox="0 0 32 32" fill="none" xmlns="http://www.w3.org/2000/svg">
<g id="material-symbols:language">
<path id="Vector" d="M10.5954 3.16548L10.5957 3.16537C12.2953 2.43243 14.0987 2.06699 16 2.06699C17.9224 2.06699 19.7318 2.43203 21.4216 3.16599L21.4218 3.16605C23.1005 3.89569 24.5748 4.89379 25.8401 6.15991C27.1064 7.4253 28.1042 8.89978 28.833 10.5787C29.5678 12.2686 29.9333 14.0779 29.9333 16.0003C29.9333 17.9016 29.5674 19.705 28.8336 21.4046C28.1049 23.0942 27.1071 24.5746 25.8402 25.8406C24.5749 27.1068 23.1004 28.1046 21.4215 28.8334C19.7317 29.5682 17.9224 29.9337 16 29.9337C14.0986 29.9337 12.2953 29.5678 10.5957 28.8339C8.90597 28.1053 7.42559 27.1074 6.15954 25.8404C4.89277 24.5745 3.89505 23.0943 3.16645 21.4048C2.43255 19.7051 2.06663 17.9017 2.06663 16.0003C2.06663 14.0778 2.43213 12.2684 3.16699 10.5786L10.5954 3.16548ZM10.5954 3.16548C8.9059 3.895 7.42565 4.89322 6.1597 6.16006M10.5954 3.16548L6.1597 6.16006M6.1597 6.16006C4.89354 7.42533 3.89584 8.89963 3.16707 10.5784L6.1597 6.16006ZM10.2644 10.067C10.4488 9.36047 10.6684 8.67238 10.9232 8.00289C11.0402 7.69509 11.1645 7.3913 11.2964 7.09152C10.6887 7.40406 10.1252 7.78154 9.6048 8.22394L10.2644 10.067ZM10.2644 10.067H7.90279M10.2644 10.067H7.90279M7.90279 10.067C8.39517 9.38468 8.96229 8.77072 9.6046 8.22411L7.90279 10.067ZM22.394 23.7765L22.3938 23.7767C21.8741 24.2189 21.3112 24.5963 20.704 24.9088C20.836 24.6087 20.9607 24.3046 21.078 23.9964L21.0782 23.9961C21.3322 23.3274 21.5513 22.6399 21.7356 21.9337H24.097C23.6045 22.616 23.0369 23.2299 22.394 23.7765ZM9.45102 17.3951L9.4511 17.3962C9.46842 17.6186 9.48991 17.8422 9.51555 18.067H6.14479C6.08944 17.7997 6.0449 17.5352 6.01109 17.2734C5.95943 16.8674 5.93329 16.4432 5.93329 16.0003C5.93329 15.5575 5.95943 15.1332 6.01109 14.7273C6.0449 14.4655 6.08944 14.2009 6.14479 13.9337H9.51555C9.48991 14.1584 9.46842 14.382 9.4511 14.6044L9.45102 14.6055C9.4169 15.0546 9.39996 15.5196 9.39996 16.0003C9.39996 16.481 9.4169 16.946 9.45102 17.3951ZM13.3155 14.6977L13.3156 14.6964C13.3347 14.4442 13.3597 14.19 13.3907 13.9337H18.6094C18.6406 14.19 18.666 14.4443 18.6857 14.6964C18.7173 15.1131 18.7333 15.5477 18.7333 16.0003C18.7333 16.4529 18.7173 16.8875 18.6857 17.3042C18.666 17.5564 18.6406 17.8106 18.6094 18.067H13.3907C13.3597 17.8106 13.3347 17.5564 13.3156 17.3043L13.3155 17.303C13.283 16.8867 13.2666 16.4526 13.2666 16.0003C13.2666 15.5481 13.283 15.1139 13.3155 14.6977ZM22.3938 8.22394L22.394 8.22411C23.0369 8.77073 23.6045 9.3847 24.097 10.067H21.7356C21.5513 9.36066 21.3323 8.67276 21.0783 8.00344L21.078 8.00268C20.9608 7.69512 20.8362 7.39157 20.7043 7.09202C21.3114 7.40447 21.8742 7.78179 22.3938 8.22394ZM16.9606 23.8375C16.677 24.4195 16.3569 24.9863 16 25.538C15.643 24.9863 15.3229 24.4195 15.0394 23.8375C14.7446 23.2325 14.4887 22.598 14.2721 21.9337H17.7278C17.5112 22.598 17.2553 23.2325 16.9606 23.8375ZM10.923 23.9959C11.0401 24.3044 11.1646 24.6089 11.2967 24.9093C10.6889 24.5967 10.1253 24.2192 9.6048 23.7767C8.96242 23.2301 8.39522 22.616 7.90279 21.9337H10.2644C10.4488 22.6398 10.6683 23.3273 10.923 23.9959ZM25.9889 17.273C25.9551 17.5349 25.9105 17.7996 25.8551 18.067H22.484C22.5095 17.842 22.5306 17.6183 22.5475 17.3957C22.5826 16.9464 22.6 16.4812 22.6 16.0003C22.6 15.5195 22.5826 15.0543 22.5475 14.605C22.5306 14.3824 22.5095 14.1586 22.484 13.9337H25.8551C25.9105 14.201 25.9551 14.4657 25.9889 14.7277C26.0405 15.1335 26.0666 15.5576 26.0666 16.0003C26.0666 16.4431 26.0405 16.8672 25.9889 17.273ZM16.9606 8.16311C17.2553 8.76816 17.5112 9.40266 17.7278 10.067H14.2721C14.4887 9.40266 14.7446 8.76816 15.0394 8.16311C15.3229 7.58114 15.643 7.01432 16 6.4626C16.3569 7.01432 16.677 7.58114 16.9606 8.16311Z" fill="#FBE6DF" stroke="black" stroke-width="1.2"/>
</g>
</svg>
